<svg xmlns="http://www.w3.org/2000/svg" viewBox="0 0 48 48" width="48" height="48">
  <defs>
    <linearGradient id="p" x1="0" y1="0" x2="1" y2="1">
      <stop offset="0%" stop-color="#9F67FA"/><stop offset="100%" stop-color="#4338CA"/>
    </linearGradient>
    <linearGradient id="c" x1="0" y1="0" x2="1" y2="1">
      <stop offset="0%" stop-color="#FBBF24"/><stop offset="100%" stop-color="#F59E0B"/>
    </linearGradient>
  </defs>
  <rect width="48" height="48" fill="#0D0D1A"/>
  <g transform="translate(24 24) scale(0.72) translate(-24 -24)">
    <path d="M24 8c4.4 5.3 6.6 10.1 6.6 14.5S28 32 24 36.5c-4-4.5-6.6-9.2-6.6-13.6S19.6 13.3 24 8Z" fill="url(#p)" opacity=".95"/>
    <path d="M10.8 17.6c5.7 1.3 9.7 4 11.9 7.5S24.6 33.6 23.7 37c-3.5-1.3-7.5-4.4-9.2-7.9s-3.5-7.9-3.7-11.5Z" fill="url(#p)" opacity=".6"/>
    <path d="M37.2 17.6c-5.7 1.3-9.7 4-11.9 7.5S23.4 33.6 24.3 37c3.5-1.3 7.5-4.4 9.2-7.9s3.5-7.9 3.7-11.5Z" fill="url(#p)" opacity=".6"/>
    <circle cx="24" cy="25.3" r="2.9" fill="url(#c)"/>
  </g>
</svg>
